<svg width="228" height="228" viewBox="0 0 228 228" fill="none" xmlns="http://www.w3.org/2000/svg">
<g clip-path="url(#clip0_11448_124752)">
<mask id="mask0_11448_124752" style="mask-type:luminance" maskUnits="userSpaceOnUse" x="0" y="0" width="228" height="228">
<path d="M228 0H0V228H228V0Z" fill="white"/>
</mask>
<g mask="url(#mask0_11448_124752)">
<path d="M13.1323 62.0039H113.611C113.611 62.0039 153.082 60.5814 163.765 101.874L199.976 39.6579C199.976 39.6579 170.887 0 114.042 0C57.1976 0 27.1453 40.808 27.1453 40.808C21.6898 47.3156 16.9885 54.4267 13.1323 62.0039Z" fill="url(#paint0_linear_11448_124752)"/>
<path d="M119.96 227.798L69.2145 140.593C69.2145 140.593 48.0194 107.059 78.0416 76.9248H6.36149C6.36149 76.9248 -12.9678 122.202 15.7604 171.545C44.4886 220.888 94.6827 226.346 94.6827 226.346C103.027 227.787 111.507 228.275 119.96 227.798Z" fill="url(#paint1_linear_11448_124752)"/>
<path d="M209.896 52.0365L159.492 138.737C159.492 138.737 139.912 174.047 99.0962 162.435L136.01 225.66C136.01 225.66 183.736 219.788 212.474 170.445C241.213 121.102 221.382 74.4128 221.382 74.4128C218.276 66.6006 214.43 59.1073 209.896 52.0365Z" fill="url(#paint2_linear_11448_124752)"/>
<g style="mix-blend-mode:overlay">
<path d="M163.755 101.893L163.815 101.793L163.715 101.722C163.725 101.762 163.745 101.813 163.755 101.893Z" fill="#3E2723" fill-opacity="0.2"/>
<path d="M157.235 82.6651C147.756 69.1364 132.338 60.5309 112.859 60.5814L13.9849 60.3393C13.694 60.8941 13.4132 61.449 13.1323 62.0039H113.611C113.611 62.0039 140.564 60.995 155.951 83.9968C159.509 89.4183 162.133 95.4037 163.715 101.702L163.815 101.773L165.189 99.4221L199.966 39.6578L157.235 82.6651Z" fill="#3E2723" fill-opacity="0.2"/>
</g>
<g style="mix-blend-mode:overlay">
<path d="M209.896 52.0365L159.492 138.737C159.492 138.737 146.311 162.485 119.047 164.624C113.044 165.056 107.01 164.504 101.183 162.99C100.49 162.818 99.7983 162.637 99.0962 162.435L99.7983 163.646L100.531 164.897L136.01 225.66L119.509 166.39C135.638 164.806 150.514 155.776 160.174 139.09L210.568 53.0453C210.328 52.7023 210.117 52.3694 209.896 52.0365Z" fill="#3E2723" fill-opacity="0.2"/>
</g>
<path d="M147.575 114C147.575 122.955 144.038 131.544 137.742 137.876C131.446 144.209 122.906 147.766 114.002 147.766C105.148 147.601 96.7032 143.99 90.4407 137.694C84.1782 131.397 80.586 122.904 80.4189 114C80.4189 105.037 83.9592 96.4403 90.261 90.1022C96.5628 83.7642 105.11 80.2035 114.022 80.2035C122.934 80.2035 131.481 83.7642 137.783 90.1022C144.085 96.4403 147.625 105.037 147.625 114H147.575Z" fill="#5176EC" stroke="#25BEDC" stroke-width="6" stroke-miterlimit="10"/>
<path d="M135.337 114C135.337 119.691 133.09 125.149 129.088 129.173C125.087 133.197 119.66 135.458 114.002 135.458C108.375 135.355 103.006 133.061 99.0258 129.059C95.0451 125.058 92.762 119.66 92.6565 114C92.7775 108.388 95.079 103.047 99.068 99.1213C103.057 95.1955 108.416 92.9971 113.997 92.9971C119.578 92.9971 124.937 95.1955 128.926 99.1213C132.915 103.047 135.216 108.388 135.337 114Z" fill="#3857D1"/>
<g style="mix-blend-mode:overlay">
<path d="M69.2144 140.593C69.2144 140.593 54.9406 118.035 66.3957 93.2883C69.2895 87.1868 73.232 81.6472 78.0415 76.9248H6.36145L64.7106 92.8848C58.1103 107.917 58.6921 125.521 68.5925 142.248L118.416 227.889L119.96 227.798L69.2144 140.593Z" fill="url(#paint3_linear_11448_124752)"/>
</g>
</g>
</g>
<defs>
<linearGradient id="paint0_linear_11448_124752" x1="-63.9543" y1="50.9368" x2="257.944" y2="50.9368" gradientUnits="userSpaceOnUse">
<stop stop-color="#20C4DA"/>
<stop offset="0.47" stop-color="#5176EC"/>
<stop offset="0.93" stop-color="#294AD6"/>
<stop offset="1" stop-color="#2243D2"/>
</linearGradient>
<linearGradient id="paint1_linear_11448_124752" x1="-28.7864" y1="-31.4761" x2="108.385" y2="248.233" gradientUnits="userSpaceOnUse">
<stop offset="0.2" stop-color="#0F2DC6"/>
<stop offset="0.7" stop-color="#5176EC"/>
<stop offset="0.76" stop-color="#4C7DEA"/>
<stop offset="0.85" stop-color="#3F92E6"/>
<stop offset="0.95" stop-color="#2AB3DE"/>
<stop offset="1" stop-color="#20C4DA"/>
</linearGradient>
<linearGradient id="paint2_linear_11448_124752" x1="68.0609" y1="227.304" x2="278.796" y2="66.4604" gradientUnits="userSpaceOnUse">
<stop stop-color="#0F2DC6"/>
<stop offset="0.01" stop-color="#102EC7"/>
<stop offset="0.23" stop-color="#3355DB"/>
<stop offset="0.41" stop-color="#496DE7"/>
<stop offset="0.52" stop-color="#5176EC"/>
<stop offset="0.73" stop-color="#3C97E4"/>
<stop offset="1" stop-color="#20C4DA"/>
</linearGradient>
<linearGradient id="paint3_linear_11448_124752" x1="4.78662" y1="152.407" x2="613.636" y2="152.407" gradientUnits="userSpaceOnUse">
<stop stop-color="#3E2723" stop-opacity="0.2"/>
<stop offset="1" stop-color="#3E2723" stop-opacity="0"/>
</linearGradient>
<clipPath id="clip0_11448_124752">
<rect width="228" height="228" fill="white"/>
</clipPath>
</defs>
</svg>
