<svg xmlns="http://www.w3.org/2000/svg" viewBox="0 0 989.96 989.96"><defs><style>.cls-1{fill:#1e4dff;}.cls-2,.cls-3,.cls-4,.cls-5,.cls-6,.cls-7,.cls-8{fill:#fff;}.cls-2{opacity:0.8;}.cls-3{opacity:0.45;}.cls-4{opacity:0.65;}.cls-5{opacity:0.6;}.cls-6{opacity:0.4;}.cls-7{opacity:0.2;}</style></defs><title>国际版logo</title><g id="图层_2" data-name="图层 2"><g id="图层_1-2" data-name="图层 1"><rect class="cls-1" width="989.96" height="989.96" rx="141.42"/><polygon class="cls-2" points="493.12 625.98 229.01 423.2 229.01 159.1 493.12 361.87 493.12 625.98"/><polygon class="cls-3" points="775.09 830.86 561.2 659.9 561.2 395.8 775.09 566.75 775.09 830.86"/><polygon class="cls-4" points="493.12 625.98 757.22 423.2 757.22 159.1 493.12 361.87 493.12 625.98"/><polygon class="cls-5" points="229.01 828.56 493.12 625.78 493.12 361.68 229.01 564.45 229.01 828.56"/><polygon class="cls-6" points="572.27 565.2 680.38 482.2 574.28 397.23 572.27 565.2"/><polygon class="cls-7" points="493.12 519.22 757.22 316.45 757.22 286.36 493.12 489.13 493.12 519.22"/><polygon class="cls-8" points="493.12 625.98 321 493.83 493.12 361.87 493.12 625.98"/><polygon class="cls-6" points="229.01 722.59 493.12 519.82 493.12 489.13 229.01 691.91 229.01 722.59"/></g></g></svg>